# xmcd
# 
# Track frame offsets:
#     150
#     13447
#     27169
#     39670
#     53422
#     66405
#     80564
#     93489
#     103619
#     116361
#     127157
#     140139
#     152999
#     166287
#     177919
#     190722
#     203461
#     214932
#     226932
#     239533
#     251609
#     263037
#     274712
#     289131
#     300631
#     313558
#     324658
# 
# Disc length: 4484
# 
# Revision: 2
# Processed by: cddbd v1.5.2PL0 Copyright (c) Steve Scherf et al.
# Submitted via: fre:ac v1.0.31
# 
DISCID=8911821b
DTITLE=Motown - Complete Motown Singles - Volume 05 - Disc 27
DYEAR=2006
DGENRE=R&B
TTITLE0=Barbara McNair - You're Gonna Love My Baby (mono)
TTITLE1=Barbara McNair - The Touch Of Time (mono)
TTITLE2=The Supremes - Children's Christmas Song (mono)
TTITLE3=The Supremes - Twinkle, Twinkle, Little Me (mono)
TTITLE4=Stevie Wonder - Uptight (Everything's Alright) (mono)
TTITLE5=Stevie Wonder - Purple Rain Drops (mono)
TTITLE6=The Velvelettes - A Bird In The Hand (Is Worth Two In The Bush) (mono)
TTITLE7=The Velvelettes - Since You've Been Loving Me (mono)
TTITLE8=The Marvelettes - Don't Mess With Bill (mono)
TTITLE9=The Marvelettes - Anything You Wanna Do (mono)
TTITLE10=Earl Van Dyke and The Soul Brothers - The Flick (Part 2) (mono)
TTITLE11=Earl Van Dyke and The Soul Brothers - The Flick (Part 1) (mono)
TTITLE12=Chris Clark - Do Right, Baby, Do Right (1st pressing Berry Gordy mix) (mono)
TTITLE13=Chris Clark - Don't Be Too Long (mono)
TTITLE14=Chris Clark - Do Right, Baby, Do Right (2nd pressing Lawrence Horn mix) (mono)
TTITLE15=The Miracles - Going To A Go-Go (mono)
TTITLE16=The Miracles - Choosey Beggar (mono)
TTITLE17=Tony Martin - Ask Any Man (mono)
TTITLE18=Tony Martin - Spanish Rose (mono)
TTITLE19=Jr. Walker and The All Stars - Cleo's Mood (mono)
TTITLE20=Jr. Walker and The All Stars - Baby You Know You Ain't Right (mono)
TTITLE21=The Supremes - My World Is Empty Without You (mono)
TTITLE22=The Supremes - Everything Is Good About You (mono)
TTITLE23=Frank Wilson - Do I Love You (Indeed I Do) (mono)
TTITLE24=Frank Wilson - Sweeter As The Days Go By (mono)
TTITLE25=The Elgins - Put Yourself In My Place (mono)
TTITLE26=The Elgins - Darling Baby (mono)
EXTD=
EXTT0=
EXTT1=
EXTT2=
EXTT3=
EXTT4=
EXTT5=
EXTT6=
EXTT7=
EXTT8=
EXTT9=
EXTT10=
EXTT11=
EXTT12=
EXTT13=
EXTT14=
EXTT15=
EXTT16=
EXTT17=
EXTT18=
EXTT19=
EXTT20=
EXTT21=
EXTT22=
EXTT23=
EXTT24=
EXTT25=
EXTT26=
PLAYORDER=
